<?xml version="1.0" encoding="iso-8859-1"?>
<!-- Generator: Adobe Illustrator 18.0.0, SVG Export Plug-In . SVG Version: 6.00 Build 0)  -->
<!DOCTYPE svg PUBLIC "-//W3C//DTD SVG 1.1//EN" "http://www.w3.org/Graphics/SVG/1.1/DTD/svg11.dtd">
<svg version="1.1" id="Capa_1" xmlns="http://www.w3.org/2000/svg" xmlns:xlink="http://www.w3.org/1999/xlink" x="0px" y="0px"
	 viewBox="0 0 373.481 373.481" style="enable-background:new 0 0 373.481 373.481;" xml:space="preserve">
<g>
	<path style="fill:#808080;" d="M169.964,321.025c-88.649,0-160.513-71.864-160.513-160.513S81.315,0,169.964,0h33.554v320.585
		L169.964,321.025z"/>
	<circle style="fill:#999999;" cx="203.518" cy="160.513" r="160.513"/>
	<path style="fill:#9ACBD8;" d="M326.901,160.512c0,3.35-0.13,6.68-0.4,9.96c-4.81,60.2-52.82,108.21-113.02,113.02
		c-3.28,0.27-6.61,0.4-9.96,0.4c-2,0-3.98-0.05-5.95-0.14c-20.8-0.99-40.26-7.13-57.11-17.18c-31.93-19.01-54.54-52.02-59.37-90.57
		c-0.63-5.07-0.96-10.24-0.96-15.49c0-66.15,52.05-120.13,117.44-123.24c1.97-0.09,3.95-0.14,5.95-0.14c5.24,0,10.4,0.33,15.47,0.97
		c25.12,3.13,47.9,13.83,65.97,29.73c6.55,5.76,12.49,12.21,17.7,19.23c2.48,3.34,4.79,6.81,6.92,10.39
		C320.581,115.902,326.901,137.472,326.901,160.512z"/>
	<path style="fill:#B5E4F4;" d="M315.001,160.512c0,66.14-52.05,120.13-117.43,123.24c-65.39-3.11-117.44-57.09-117.44-123.24
		s52.05-120.13,117.44-123.24C262.951,40.382,315.001,94.372,315.001,160.512z"/>
	<g>
		<rect x="161.539" y="321.025" style="fill:#808080;" width="41.978" height="52.456"/>
		<rect x="190.059" y="321.025" style="fill:#B3B3B3;" width="13.459" height="52.456"/>
		<rect x="161.539" y="321.025" style="fill:#B3B3B3;" width="6.729" height="52.456"/>
	</g>
	<path style="fill:#808080;" d="M202.818,186.639c-14.43,0-26.127-11.698-26.127-26.127c0-14.43,11.698-26.127,26.127-26.127h6.833
		v52.183L202.818,186.639z"/>
	<path style="fill:#9ACBD8;" d="M296.661,87.062l-46.63,28.35l28.93-47.58C285.511,73.592,291.451,80.042,296.661,87.062z"/>
	<path style="fill:#EF7954;" d="M302.661,87.062l-46.63,28.35l28.93-47.58C291.511,73.592,297.451,80.042,302.661,87.062z"/>
	<polygon style="fill:#808080;" points="198.984,171.255 152.236,74.17 218.581,159.077 	"/>
	<circle style="fill:#999999;" cx="209.651" cy="160.512" r="26.127"/>
	<circle style="fill:#808080;" cx="209.651" cy="160.512" r="12.621"/>
	<path style="opacity:0.49;fill:#F2F2F2;" d="M218.991,38.102l-137.9,137.9c-0.63-5.07-0.96-10.24-0.96-15.49
		c0-66.15,52.05-120.13,117.44-123.24c1.97-0.09,3.95-0.14,5.95-0.14C208.761,37.132,213.921,37.462,218.991,38.102z"/>
	<path style="opacity:0.49;fill:#F2F2F2;" d="M326.901,160.512c0,3.35-0.13,6.68-0.4,9.96l-113.02,113.02
		c-3.28,0.27-6.61,0.4-9.96,0.4c-2,0-3.98-0.05-5.95-0.14c-20.8-0.99-40.26-7.13-57.11-17.18l169.12-169.12
		C320.581,115.902,326.901,137.472,326.901,160.512z"/>
</g>
<g>
</g>
<g>
</g>
<g>
</g>
<g>
</g>
<g>
</g>
<g>
</g>
<g>
</g>
<g>
</g>
<g>
</g>
<g>
</g>
<g>
</g>
<g>
</g>
<g>
</g>
<g>
</g>
<g>
</g>
</svg>
