<?xml version="1.0" encoding="utf-8"?>
<!-- Generator: Adobe Illustrator 17.1.0, SVG Export Plug-In . SVG Version: 6.00 Build 0)  -->
<!DOCTYPE svg PUBLIC "-//W3C//DTD SVG 1.1//EN" "http://www.w3.org/Graphics/SVG/1.1/DTD/svg11.dtd">
<svg version="1.1"
	 id="svg2" xmlns:sodipodi="http://sodipodi.sourceforge.net/DTD/sodipodi-0.dtd" xmlns:cc="http://creativecommons.org/ns#" xmlns:svg="http://www.w3.org/2000/svg" xmlns:rdf="http://www.w3.org/1999/02/22-rdf-syntax-ns#" xmlns:dc="http://purl.org/dc/elements/1.1/" xmlns:inkscape="http://www.inkscape.org/namespaces/inkscape" sodipodi:docname="blogger.svg" inkscape:version="0.47 r22583" inkscape:output_extension="org.inkscape.output.svg.inkscape" sodipodi:version="0.32"
	 xmlns="http://www.w3.org/2000/svg" xmlns:xlink="http://www.w3.org/1999/xlink" x="0px" y="0px" width="200px" height="200px"
	 viewBox="0 0 200 200" enable-background="new 0 0 200 200" xml:space="preserve">
<sodipodi:namedview  inkscape:zoom="0.24748737" showgrid="false" bordercolor="#666666" inkscape:cy="122.62969" inkscape:cx="150.19857" borderopacity="1.0" pagecolor="#ffffff" id="base" inkscape:current-layer="layer1" inkscape:pageopacity="0.0" inkscape:window-height="674" inkscape:window-x="1" inkscape:window-y="281" inkscape:document-units="px" inkscape:window-width="782" inkscape:window-maximized="0" inkscape:pageshadow="2">
	</sodipodi:namedview>
<path id="rect1942" inkscape:export-xdpi="7.7063322" inkscape:export-ydpi="7.7063322" inkscape:export-filename="C:\Documents and Settings\Molumen\Desktop\path3511111.png" fill="#00ACED" d="
	M169.8,0H30.2C13.5,0,0,13.5,0,30.2v139.6C0,186.5,13.5,200,30.2,200h139.6c16.7,0,30.2-13.5,30.2-30.2V30.2
	C200,13.5,186.5,0,169.8,0z"/>
<path id="path3786" sodipodi:nodetypes="cc" fill="none" stroke="#00ACED" stroke-width="25" stroke-linecap="round" d="M78.8,77.5
	l24.9,0.4"/>
<path id="path3788" sodipodi:nodetypes="cc" fill="none" stroke="#00ACED" stroke-width="25" stroke-linecap="round" d="M76,126.2
	h49.9"/>
<g>
	<path fill="#FFFFFF" d="M165,153.1c-2,4.8-7.5,7.9-11.9,10.3c-5.7,3.1-11.6,5-18.1,5c-9,0-17.2-3.7-25.5-6.7
		c-5.9-2.1-11.7-4.8-17-8.1C76,143.4,56,123.4,45.8,106.9c-3.3-5.4-5.9-11.1-8.1-17c-3-8.3-6.7-16.4-6.7-25.5c0-6.5,1.8-12.4,5-18.1
		c2.4-4.4,5.5-9.8,10.3-11.9c3.2-1.5,10-3,13.5-3c0.7,0,1.4,0,2,0.3c2,0.7,4.2,5.4,5.2,7.4c3.1,5.5,6.1,11.2,9.3,16.6
		c1.6,2.5,4.5,5.6,4.5,8.7c0,5.9-17.6,14.6-17.6,19.9c0,2.6,2.4,6,3.8,8.4c9.8,17.7,22.1,30,39.8,39.8c2.3,1.4,5.7,3.8,8.4,3.8
		c5.3,0,13.9-17.6,19.9-17.6c3,0,6.1,2.9,8.7,4.5c5.4,3.2,11.1,6.2,16.6,9.3c1.9,1,6.7,3.1,7.4,5.2c0.3,0.7,0.3,1.4,0.3,2
		C168,143.1,166.4,149.9,165,153.1z"/>
</g>
</svg>
